<?xml version="1.0" encoding="utf-8"?>
<!-- Generator: Adobe Illustrator 26.3.1, SVG Export Plug-In . SVG Version: 6.00 Build 0)  -->
<svg version="1.1" id="logo" xmlns="http://www.w3.org/2000/svg" xmlns:xlink="http://www.w3.org/1999/xlink" x="0px" y="0px"
	 viewBox="0 0 500 42" style="enable-background:new 0 0 500 42;" xml:space="preserve">
<style type="text/css">
	.st0{fill:#FFFFFF;}
</style>
<g id="logo_00000135649278586079956650000009224991262678497449_">
	<path class="st0" d="M36.6,11.2h-2.2c-0.6-1.6-1.5-3.1-2.9-4.8c-1.4-1.6-2.7-2.5-4.1-2.8c-0.6-0.1-1.4-0.2-2.4-0.2
		c-1,0-1.9,0-2.6,0h-6v15.9h4.2c1.1,0,2-0.1,2.9-0.4s1.7-0.7,2.4-1.5c0.4-0.4,0.9-1.2,1.4-2.4c0.5-1.1,0.8-2.1,0.9-2.9h2.2v17.2
		h-2.2c-0.1-0.8-0.4-1.8-0.9-3.1c-0.5-1.2-0.9-2.1-1.4-2.5c-0.6-0.7-1.4-1.2-2.3-1.4s-1.9-0.4-3-0.4h-4.2v11.9c0,1.2,0.1,2.2,0.3,3
		s0.5,1.3,1,1.7c0.5,0.4,1.1,0.6,2,0.7c0.8,0.1,2,0.2,3.4,0.2c0.7,0,1.5,0,2.4,0c1,0,1.8-0.1,2.5-0.2c0.8-0.1,1.6-0.2,2.3-0.4
		c0.7-0.2,1.2-0.5,1.6-0.8c0.9-1,2-2.4,3.1-4.3c1.2-1.9,1.9-3.4,2.3-4.4h2.1l-0.8,12.9H0v-2.3c0.5,0,1.3-0.1,2.2-0.2s1.6-0.3,2-0.4
		c0.7-0.3,1.2-0.7,1.5-1.2c0.3-0.5,0.4-1.1,0.4-1.8V6.9c0-0.7-0.1-1.3-0.3-1.7C5.5,4.7,5,4.3,4.2,3.9C3.7,3.7,3,3.5,2.1,3.3
		S0.5,3,0,2.9V0.7h36.6V11.2z"/>
	<path class="st0" d="M87.7,41.9H62.6v-2.3c2.4-0.1,4-0.3,4.7-0.6c0.7-0.3,1-0.7,1-1.1c0-0.3-0.1-0.7-0.4-1.2
		c-0.3-0.6-0.6-1.2-1-1.9c-0.7-1.1-1.6-2.6-2.7-4.3c-1.1-1.7-2.3-3.5-3.5-5.3c-4.1,4.7-6.7,7.8-7.7,9.4c-1.1,1.6-1.6,2.6-1.6,3.1
		c0,0.3,0,0.5,0.1,0.7c0.1,0.2,0.3,0.4,0.7,0.5c0.3,0.2,0.7,0.3,1.4,0.4c0.7,0.1,1.4,0.2,2.3,0.3v2.3h-16v-2.3
		c0.8-0.1,1.5-0.1,2-0.3s1-0.3,1.5-0.5c1.1-0.5,2.1-1.2,3-2c0.9-0.8,1.8-1.7,2.7-2.8c1.4-1.5,2.9-3.3,4.6-5.2c1.7-1.9,3.5-4,5.4-6.2
		c-1.8-2.7-3.6-5.3-5.3-7.9c-1.8-2.5-3.3-4.7-4.5-6.5c-0.6-0.9-1.4-1.8-2.3-2.7c-0.9-0.9-1.9-1.5-2.9-1.9c-0.5-0.2-1.1-0.4-1.7-0.5
		c-0.6-0.1-1.4-0.2-2.2-0.3V0.7h25.2v2.3c-2,0.1-3.4,0.3-4.3,0.5s-1.4,0.7-1.4,1.2c0,0.3,0.1,0.6,0.3,1c0.2,0.4,0.5,1.1,1.1,2
		c0.5,0.8,1.2,1.9,2.2,3.4c1,1.5,2.1,3.2,3.3,5.1c3.7-4.4,6-7.2,6.9-8.5c0.9-1.3,1.4-2.2,1.4-2.7c0-0.6-0.3-1-0.8-1.3
		c-0.5-0.3-1.8-0.5-3.8-0.7V0.7h16.1v2.3c-0.7,0-1.3,0.1-1.8,0.2s-1,0.3-1.6,0.6c-1.2,0.5-2.2,1.2-3,2c-0.8,0.8-1.7,1.7-2.7,2.8
		c-1.4,1.6-2.8,3.1-4.1,4.6c-1.3,1.5-2.9,3.3-4.8,5.5c2.3,3.5,4.4,6.5,6,8.9c1.7,2.4,3.2,4.6,4.7,6.7c0.6,0.9,1.3,1.8,2.3,2.7
		c0.9,0.9,1.9,1.5,2.9,1.9c0.5,0.2,1,0.3,1.6,0.5c0.6,0.2,1.4,0.3,2.4,0.3V41.9z"/>
	<path class="st0" d="M132.9,41.9h-22.5v-2.3c1-0.1,2.3-0.3,3.7-0.6c1.4-0.3,2.1-0.7,2.1-1.1c0-0.2,0-0.3,0-0.5
		c0-0.2-0.1-0.5-0.2-0.8l-3.5-8.6H98.2c-0.3,0.8-0.7,1.7-1.1,2.8c-0.4,1.1-0.7,2-1,2.9c-0.4,1.1-0.6,1.9-0.7,2.4
		c-0.1,0.5-0.1,0.8-0.1,1c0,0.6,0.5,1.1,1.4,1.6c0.9,0.4,2.5,0.8,4.7,0.9v2.3H84.5v-2.3c0.6,0,1.4-0.1,2.2-0.3
		c0.8-0.2,1.4-0.4,1.9-0.7c0.8-0.5,1.5-1,2-1.7c0.6-0.7,1-1.5,1.4-2.4c2.2-5.4,4.5-10.9,6.8-16.4c2.3-5.5,4.8-11.5,7.5-18.1h5.8
		c3.8,9.3,6.8,16.7,8.9,22.2c2.2,5.4,4,9.9,5.5,13.5c0.3,0.6,0.6,1.1,1,1.6c0.4,0.5,0.9,0.9,1.7,1.4c0.5,0.3,1.2,0.5,1.9,0.7
		c0.7,0.2,1.4,0.3,1.9,0.3V41.9z M111.3,25.2l-6-14.9l-5.9,14.9H111.3z"/>
	<path class="st0" d="M188.6,41.9h-22.4v-2.3c0.7-0.1,1.5-0.2,2.4-0.3c1-0.1,1.6-0.3,2-0.4c0.7-0.3,1.2-0.7,1.5-1.2
		c0.3-0.5,0.5-1.1,0.5-1.9V5l-14.2,36.3h-3.7c-0.2-0.6-0.6-1.9-1.3-3.8c-0.7-1.9-1.2-3.4-1.7-4.6L141.3,4.5v25.1
		c0,2.4,0.2,4.2,0.5,5.5c0.3,1.3,0.8,2.2,1.6,2.7c0.5,0.4,1.4,0.8,2.6,1.2c1.3,0.4,2.1,0.6,2.6,0.6v2.3h-17.7v-2.3
		c0.5-0.1,1.3-0.2,2.4-0.4s2-0.6,2.7-1.1c0.8-0.5,1.3-1.5,1.6-2.7c0.3-1.3,0.4-3.1,0.4-5.5V9.5c0-1.2-0.2-2.3-0.5-3.1
		s-0.8-1.5-1.4-2c-0.8-0.6-1.6-1-2.4-1.2c-0.8-0.2-1.6-0.3-2.5-0.3V0.7h19l10.2,27.2l8.6-22.1c0.3-0.8,0.6-1.8,0.8-2.9
		c0.3-1.1,0.4-1.9,0.4-2.2h18.3v2.3c-0.6,0-1.3,0.1-1.9,0.2c-0.7,0.1-1.3,0.3-1.9,0.5c-0.8,0.3-1.3,0.6-1.5,1.2
		c-0.2,0.5-0.4,1.1-0.4,1.8v29.2c0,0.7,0.1,1.3,0.4,1.8c0.2,0.5,0.7,0.9,1.5,1.2c0.4,0.2,1,0.3,1.9,0.5c0.9,0.2,1.6,0.3,2.1,0.3
		V41.9z"/>
	<path class="st0" d="M230,11c0,2.3-0.5,4.3-1.4,6s-2.3,3-4,4.1c-1.7,1.1-3.7,1.9-6,2.4s-4.8,0.7-7.5,0.7h-3.4v11.6
		c0,0.7,0.1,1.3,0.4,1.8c0.3,0.5,0.8,0.9,1.5,1.2c0.4,0.2,1,0.3,1.9,0.5s1.6,0.3,2.2,0.3v2.3h-22.4v-2.3c0.6-0.1,1.3-0.1,2.2-0.2
		c0.9-0.1,1.6-0.2,1.9-0.4c0.8-0.3,1.3-0.7,1.5-1.1c0.2-0.4,0.4-1.1,0.4-1.9V6.9c0-0.7-0.1-1.3-0.3-1.8s-0.7-0.9-1.5-1.2
		c-0.5-0.2-1.3-0.4-2.2-0.6c-0.9-0.2-1.6-0.3-2-0.4V0.7h22.8c5.3,0,9.3,0.8,12,2.5S230,7.5,230,11z M218.7,12.5
		c0-3.1-0.6-5.4-1.9-6.9s-3.5-2.3-6.7-2.3h-2.4v18.1h1.2c3.2,0,5.6-0.7,7.3-2.2S218.7,15.5,218.7,12.5z"/>
	<path class="st0" d="M270.4,28.7l-0.8,13.2h-38v-2.3c0.7-0.1,1.5-0.2,2.4-0.3c0.9-0.1,1.5-0.2,1.8-0.4c0.7-0.3,1.2-0.6,1.5-1.1
		c0.3-0.5,0.4-1.1,0.4-1.9V6.9c0-0.7-0.1-1.3-0.3-1.7s-0.7-0.9-1.5-1.2c-0.6-0.3-1.3-0.5-2.2-0.7c-0.8-0.2-1.5-0.3-2-0.4V0.7h22.7
		v2.3c-0.6,0.1-1.4,0.1-2.2,0.2c-0.8,0.1-1.6,0.3-2.2,0.5c-0.8,0.3-1.3,0.6-1.5,1.2c-0.3,0.5-0.4,1.1-0.4,1.8v27.1
		c0,1.3,0.1,2.3,0.3,3c0.2,0.7,0.5,1.3,1,1.6c0.5,0.4,1.2,0.6,2.1,0.7s2.1,0.2,3.7,0.2c1.6,0,3.1-0.1,4.5-0.3
		c1.5-0.2,2.5-0.6,3.2-1.2c1-1,2-2.4,3-4.2c1-1.8,1.9-3.4,2.5-4.9H270.4z"/>
	<path class="st0" d="M307.5,11.2h-2.2c-0.6-1.6-1.5-3.1-2.9-4.8c-1.4-1.6-2.7-2.5-4.1-2.8c-0.6-0.1-1.4-0.2-2.4-0.2s-1.9,0-2.6,0
		h-6v15.9h4.2c1.1,0,2-0.1,2.9-0.4c0.9-0.3,1.7-0.7,2.4-1.5c0.4-0.4,0.9-1.2,1.4-2.4c0.5-1.1,0.8-2.1,0.9-2.9h2.2v17.2h-2.2
		c-0.1-0.8-0.4-1.8-0.9-3.1c-0.5-1.2-0.9-2.1-1.4-2.5c-0.6-0.7-1.4-1.2-2.3-1.4c-0.9-0.3-1.9-0.4-3-0.4h-4.2v11.9
		c0,1.2,0.1,2.2,0.3,3c0.2,0.7,0.5,1.3,1,1.7c0.5,0.4,1.1,0.6,2,0.7c0.8,0.1,2,0.2,3.4,0.2c0.7,0,1.5,0,2.4,0c1,0,1.8-0.1,2.5-0.2
		c0.8-0.1,1.6-0.2,2.3-0.4c0.7-0.2,1.2-0.5,1.6-0.8c0.9-1,2-2.4,3.1-4.3c1.2-1.9,1.9-3.4,2.3-4.4h2.1l-0.8,12.9h-38.7v-2.3
		c0.5,0,1.3-0.1,2.2-0.2s1.6-0.3,2-0.4c0.7-0.3,1.2-0.7,1.5-1.2c0.3-0.5,0.4-1.1,0.4-1.8V6.9c0-0.7-0.1-1.3-0.3-1.7
		c-0.2-0.5-0.7-0.9-1.5-1.2c-0.5-0.2-1.2-0.4-2.1-0.6c-0.9-0.2-1.6-0.3-2.1-0.4V0.7h36.6V11.2z"/>
	<path class="st0" d="M362.5,23c1.2,0.9,2.2,1.9,3,3.2c0.8,1.3,1.2,2.8,1.2,4.6c0,2.1-0.4,3.9-1.3,5.3c-0.9,1.4-2.1,2.6-3.8,3.4
		c-1.7,0.9-3.8,1.5-6,1.9c-2.3,0.4-5,0.6-8,0.6H326v-2.3c0.6-0.1,1.4-0.1,2.3-0.3c0.9-0.1,1.6-0.3,1.9-0.4c0.7-0.3,1.2-0.7,1.5-1.1
		c0.3-0.5,0.4-1.1,0.4-1.8V6.9c0-0.7-0.1-1.3-0.3-1.7c-0.2-0.5-0.7-0.9-1.5-1.2c-0.6-0.3-1.3-0.5-2.1-0.6S326.6,3,326,2.9V0.7h22.4
		c5.6,0,9.7,0.8,12.2,2.3s3.8,3.8,3.8,6.9c0,1.4-0.3,2.6-0.8,3.7s-1.4,2-2.4,2.7c-1,0.7-2.1,1.3-3.4,1.9c-1.3,0.5-2.7,1-4.2,1.3V20
		c1.5,0.2,3.1,0.5,4.7,1S361.3,22.2,362.5,23z M353.1,10.6c0-2.3-0.6-4.1-1.9-5.4s-3.2-1.9-5.8-1.9c-0.4,0-0.8,0-1.4,0
		c-0.6,0-1.1,0.1-1.5,0.1v15.3h1.5c3.1,0,5.5-0.7,7-2.2S353.1,13.1,353.1,10.6z M355.2,30.4c0-2.9-0.9-5.1-2.6-6.6
		c-1.7-1.5-4.2-2.3-7.4-2.3c-0.4,0-0.9,0-1.5,0c-0.6,0-1.1,0.1-1.4,0.1v15.1c0.2,0.7,0.7,1.3,1.6,1.8c0.9,0.5,2,0.7,3.3,0.7
		c2.3,0,4.2-0.8,5.6-2.3C354.4,35.4,355.2,33.2,355.2,30.4z"/>
	<path class="st0" d="M406.3,11.2h-2.2c-0.6-1.6-1.5-3.1-2.9-4.8c-1.4-1.6-2.7-2.5-4.1-2.8c-0.6-0.1-1.4-0.2-2.4-0.2
		c-1,0-1.9,0-2.6,0h-6v15.9h4.2c1.1,0,2-0.1,2.9-0.4c0.9-0.3,1.7-0.7,2.4-1.5c0.4-0.4,0.9-1.2,1.4-2.4c0.5-1.1,0.8-2.1,0.9-2.9h2.2
		v17.2h-2.2c-0.1-0.8-0.4-1.8-0.9-3.1c-0.5-1.2-0.9-2.1-1.4-2.5c-0.6-0.7-1.4-1.2-2.3-1.4c-0.9-0.3-1.9-0.4-3-0.4H386v11.9
		c0,1.2,0.1,2.2,0.3,3c0.2,0.7,0.5,1.3,1,1.7c0.5,0.4,1.1,0.6,2,0.7c0.8,0.1,2,0.2,3.4,0.2c0.7,0,1.5,0,2.4,0c1,0,1.8-0.1,2.5-0.2
		c0.8-0.1,1.6-0.2,2.3-0.4c0.7-0.2,1.2-0.5,1.6-0.8c0.9-1,2-2.4,3.1-4.3c1.2-1.9,1.9-3.4,2.3-4.4h2.1l-0.8,12.9h-38.7v-2.3
		c0.5,0,1.3-0.1,2.2-0.2s1.6-0.3,2-0.4c0.7-0.3,1.2-0.7,1.5-1.2c0.3-0.5,0.4-1.1,0.4-1.8V6.9c0-0.7-0.1-1.3-0.3-1.7
		c-0.2-0.5-0.7-0.9-1.5-1.2c-0.5-0.2-1.2-0.4-2.1-0.6c-0.9-0.2-1.6-0.3-2.1-0.4V0.7h36.6V11.2z"/>
	<path class="st0" d="M447.7,11.2h-2.2C445,9.6,444,8,442.6,6.4c-1.4-1.6-2.7-2.5-4.1-2.8c-0.6-0.1-1.4-0.2-2.4-0.2s-1.9,0-2.6,0h-6
		v15.9h4.2c1.1,0,2-0.1,2.9-0.4c0.9-0.3,1.7-0.7,2.4-1.5c0.4-0.4,0.9-1.2,1.4-2.4s0.8-2.1,0.9-2.9h2.2v17.2h-2.2
		c-0.1-0.8-0.4-1.8-0.9-3.1c-0.5-1.2-0.9-2.1-1.4-2.5c-0.6-0.7-1.4-1.2-2.3-1.4s-1.9-0.4-3-0.4h-4.2v11.9c0,1.2,0.1,2.2,0.3,3
		c0.2,0.7,0.5,1.3,1,1.7c0.5,0.4,1.1,0.6,2,0.7c0.8,0.1,2,0.2,3.4,0.2c0.7,0,1.5,0,2.4,0c1,0,1.8-0.1,2.5-0.2
		c0.8-0.1,1.6-0.2,2.3-0.4c0.7-0.2,1.2-0.5,1.6-0.8c0.9-1,2-2.4,3.1-4.3c1.2-1.9,1.9-3.4,2.3-4.4h2.1l-0.8,12.9h-38.7v-2.3
		c0.5,0,1.3-0.1,2.2-0.2s1.6-0.3,2-0.4c0.7-0.3,1.2-0.7,1.5-1.2c0.3-0.5,0.4-1.1,0.4-1.8V6.9c0-0.7-0.1-1.3-0.3-1.7
		s-0.7-0.9-1.5-1.2c-0.5-0.2-1.2-0.4-2.1-0.6c-0.9-0.2-1.6-0.3-2.1-0.4V0.7h36.6V11.2z"/>
	<path class="st0" d="M500,41.9h-15.8c-2.7-4.2-5-7.5-6.8-10c-1.8-2.5-4.1-5.4-6.8-8.6H469v12.5c0,0.7,0.1,1.3,0.4,1.8
		s0.8,0.9,1.5,1.2c0.4,0.2,0.9,0.3,1.7,0.5c0.8,0.2,1.5,0.3,2,0.3v2.3h-22v-2.3c0.6-0.1,1.3-0.1,2.2-0.2c0.9-0.1,1.6-0.2,2-0.4
		c0.7-0.3,1.2-0.7,1.5-1.2c0.3-0.5,0.4-1.1,0.4-1.8V6.9c0-0.7-0.1-1.3-0.3-1.7c-0.2-0.5-0.7-0.9-1.5-1.2c-0.6-0.3-1.4-0.5-2.2-0.6
		c-0.8-0.2-1.5-0.3-2-0.4V0.7h23.2c5.2,0,9.1,0.8,11.8,2.4s4,4.1,4,7.3c0,2.9-0.8,5.2-2.5,7s-4.2,3.1-7.6,4.1
		c1.3,1.7,2.9,3.7,4.6,5.9s3.6,4.5,5.5,6.9c0.6,0.8,1.4,1.7,2.5,2.8c1,1.1,2,1.8,2.7,2c0.4,0.1,1,0.3,1.7,0.3
		c0.7,0.1,1.2,0.2,1.5,0.2V41.9z M480.2,11.2c0-2.8-0.8-4.8-2.3-6c-1.5-1.3-3.7-1.9-6.6-1.9H469v17.3h2.2c2.9,0,5.1-0.7,6.6-2.2
		S480.2,14.5,480.2,11.2z"/>
</g>
</svg>
